<svg width="30" height="26" viewBox="0 0 30 26" fill="none" xmlns="http://www.w3.org/2000/svg">
<path d="M9.94245 25.9708C11.1344 25.9708 12.1007 25.0046 12.1007 23.8126C12.1007 22.6206 11.1344 21.6543 9.94245 21.6543C8.75047 21.6543 7.78418 22.6206 7.78418 23.8126C7.78418 25.0046 8.75047 25.9708 9.94245 25.9708Z" fill="white"/>
<path d="M25.0509 25.9708C26.2428 25.9708 27.2091 25.0046 27.2091 23.8126C27.2091 22.6206 26.2428 21.6543 25.0509 21.6543C23.8589 21.6543 22.8926 22.6206 22.8926 23.8126C22.8926 25.0046 23.8589 25.9708 25.0509 25.9708Z" fill="white"/>
<path d="M28.8815 3.90185C28.7299 3.71641 28.5389 3.56705 28.3224 3.46462C28.1059 3.36219 27.8693 3.30926 27.6297 3.30968H7.10255L6.6891 0.963902C6.64502 0.714034 6.5143 0.487689 6.3199 0.324627C6.12551 0.161564 5.87988 0.0722123 5.62615 0.0722656H1.30961C1.0234 0.0722656 0.748918 0.18596 0.54654 0.388338C0.344163 0.590715 0.230469 0.865197 0.230469 1.1514C0.230469 1.43761 0.344163 1.71209 0.54654 1.91447C0.748918 2.11684 1.0234 2.23054 1.30961 2.23054H4.72103L7.80061 19.6842C7.8447 19.9341 7.97542 20.1604 8.16981 20.3235C8.3642 20.4866 8.60983 20.5759 8.86356 20.5759H26.1297C26.416 20.5759 26.6904 20.4622 26.8928 20.2598C27.0952 20.0574 27.2089 19.7829 27.2089 19.4967C27.2089 19.2105 27.0952 18.936 26.8928 18.7337C26.6904 18.5313 26.416 18.4176 26.1297 18.4176H9.76869L9.38829 16.2593H25.6873C26.0615 16.2588 26.4241 16.1291 26.7137 15.892C27.0033 15.6549 27.202 15.3251 27.2763 14.9583L29.2188 5.24605C29.2656 5.011 29.2596 4.7685 29.2013 4.53604C29.143 4.30358 29.0338 4.08697 28.8815 3.90185V3.90185Z" fill="white"/>
</svg>
