<svg width="38" height="39" viewBox="0 0 38 39" fill="none" xmlns="http://www.w3.org/2000/svg">
<path d="M0.587891 38.4596C1.64557 35.2955 2.65228 32.3691 3.58508 29.4169C3.73036 28.9597 3.67683 28.3191 3.46784 27.8878C-0.0033949 20.7642 0.361063 13.8705 5.23914 7.64056C10.1351 1.38998 16.7742 -0.782225 24.3641 1.25051C31.931 3.27807 36.5567 8.50583 37.752 16.3552C38.8454 23.546 36.2993 29.5641 30.5063 33.8569C24.6597 38.1884 18.2499 38.6326 11.6413 35.6442C10.9685 35.3394 10.4154 35.2697 9.72218 35.5021C6.75813 36.4888 3.78133 37.4316 0.587891 38.4596ZM5.14229 33.9498C6.90085 33.3842 8.42238 32.9451 9.90059 32.3975C10.7263 32.0902 11.3661 32.2116 12.1434 32.6222C17.5694 35.4944 22.9929 35.3963 28.1106 31.992C33.2257 28.5878 35.5628 23.6183 35.0021 17.4065C34.4286 11.0319 29.8232 5.67241 23.6326 3.9832C17.4267 2.29141 10.813 4.68574 7.01299 10.0039C3.31238 15.18 3.15946 22.1099 6.65618 27.4952C6.97731 27.9885 7.02318 28.394 6.83204 28.9339C6.26879 30.5198 5.75142 32.1237 5.14229 33.9498Z" fill="white"/>
<path d="M10.5889 14.9239C10.6781 13.4904 11.1547 12.2738 12.1461 11.282C13.3337 10.0939 14.868 10.378 15.4924 11.889C15.7906 12.6122 16.0175 13.3767 16.3998 14.0509C16.9605 15.0453 16.7973 15.8925 15.9996 16.5847C15.128 17.3415 15.2962 17.9924 15.89 18.837C17.3122 20.8619 19.1013 22.3807 21.3619 23.3596C21.9711 23.623 22.4018 23.5714 22.7841 23.029C22.9141 22.843 23.0746 22.6777 23.2173 22.5021C24.4254 21.0221 24.4279 21.0195 26.1865 21.8693C26.8848 22.205 27.5653 22.5847 28.2789 22.8869C28.8626 23.1349 29.0002 23.5326 28.9441 24.1267C28.7173 26.5314 26.1228 28.1973 23.5181 27.5697C19.555 26.6166 16.2162 24.6252 13.7619 21.2959C12.7858 19.9708 11.9371 18.5348 11.1496 17.0832C10.803 16.4504 10.7647 15.6471 10.5889 14.9239Z" fill="white"/>
</svg>
