<svg width="36" height="36" viewBox="0 0 36 36" fill="none" xmlns="http://www.w3.org/2000/svg">
<path d="M35.6428 35.7036C33.4535 35.7036 31.3305 35.7036 28.8456 35.7036C28.8456 32.8831 28.8787 30.1065 28.8354 27.3299C28.8048 25.4056 28.7411 23.4762 28.5601 21.5623C28.3537 19.3901 27.2756 17.9695 24.9385 17.8817C22.5326 17.7913 20.9932 18.8555 20.7027 21.4487C20.3714 24.388 20.4733 27.379 20.4172 30.3467C20.3841 32.0282 20.4121 33.7122 20.4121 35.59C18.1515 35.59 15.9826 35.59 13.6455 35.59C13.6455 27.862 13.6455 20.103 13.6455 12.1529C15.6793 12.1529 17.6902 12.1529 19.8948 12.1529C19.9789 12.9045 20.0706 13.7207 20.2006 14.8856C22.5326 12.0031 25.5477 11.8068 28.6774 12.0237C32.6838 12.3027 35.365 14.5446 35.574 18.6049C35.8569 24.202 35.6428 29.825 35.6428 35.7036Z" fill="white"/>
<path d="M0.660156 12.0674C3.39485 12.0674 5.98936 12.0674 8.74953 12.0674C8.74953 19.8935 8.74953 27.6473 8.74953 35.5923C6.12953 35.5923 3.4815 35.5923 0.660156 35.5923C0.660156 27.8695 0.660156 20.1182 0.660156 12.0674Z" fill="white"/>
<path d="M8.89969 4.09165C8.96595 6.2871 7.14115 8.22943 4.92894 8.31725C2.56127 8.41023 0.578454 6.59963 0.51219 4.28536C0.451023 2.14157 2.33698 0.119171 4.50076 0.00552355C6.79197 -0.115872 8.83088 1.77997 8.89969 4.09165Z" fill="white"/>
</svg>
