<svg width="37" height="38" viewBox="0 0 37 38" fill="none" xmlns="http://www.w3.org/2000/svg">
<path d="M0.849018 11.5634C0.920379 9.41446 1.34091 7.33524 2.51328 5.49623C3.89974 3.32144 5.91571 2.05066 8.36239 1.42301C9.81256 1.05108 11.2959 0.955512 12.7817 0.945181C16.6505 0.919352 20.5219 0.914186 24.3907 0.945181C26.0575 0.958095 27.7192 1.07949 29.3376 1.55474C32.1819 2.38901 34.152 4.21253 35.3218 6.94781C36.0227 8.58536 36.2979 10.3159 36.3132 12.0877C36.3463 16.2152 36.3616 20.3452 36.3616 24.4727C36.3616 26.1619 36.2724 27.8485 35.8621 29.5016C35.0975 32.5804 33.2625 34.7242 30.3953 35.9717C28.5577 36.7724 26.6106 36.9816 24.6405 36.9919C20.5678 37.0126 16.4925 37.0178 12.4198 36.9893C10.4625 36.9764 8.52551 36.7724 6.69304 35.9924C4.36614 35.0031 2.76305 33.2907 1.78693 30.9557C0.938233 28.923 0.798058 26.7715 0.782766 24.6044C0.767475 22.7809 0.77001 14.0223 0.849018 11.5634ZM3.91503 22.1868C3.94306 24.2971 3.93286 26.4047 4.37378 28.4942C4.90389 31.0126 6.61147 32.9032 9.11677 33.3397C10.7301 33.6213 12.379 33.7633 14.0153 33.8072C16.8035 33.8821 19.5967 33.8486 22.3875 33.8253C24.2913 33.8098 26.2003 33.8072 28.0684 33.3552C30.5074 32.7638 32.3042 31.1081 32.7477 28.5562C33.0051 27.0711 33.1351 25.5472 33.1682 24.0362C33.2396 20.8179 33.2345 17.597 33.2115 14.3788C33.1988 12.6921 33.1606 11.0004 32.763 9.34731C32.1717 6.89357 30.5508 5.10363 28.0276 4.58705C26.2079 4.21511 24.355 4.16604 22.5098 4.1273C20.0377 4.07822 17.5655 4.09888 15.0933 4.11955C13.1895 4.13504 11.2831 4.13246 9.40477 4.52506C7.13904 4.99773 5.46969 6.21427 4.62864 8.46138C4.21831 9.56169 4.12911 10.7292 4.06794 11.8811C3.9558 14.0817 3.89974 20.9574 3.91503 22.1868Z" fill="white"/>
<path d="M27.6484 19.0172C27.6815 23.9815 23.5986 28.4086 18.221 28.264C13.3709 28.1348 9.40017 24.0151 9.31861 19.1257C9.23705 14.1846 13.2333 9.6336 18.5982 9.66718C23.7566 9.70075 27.7427 14.0968 27.6484 19.0172ZM12.4993 18.9397C12.3923 22.4111 15.4557 24.883 18.2643 24.9708C21.8018 25.0818 24.4193 22.1219 24.4855 19.1438C24.5594 15.8868 22.0159 12.8829 18.4656 12.8958C15.1626 12.9061 12.5197 15.5691 12.4993 18.9397Z" fill="white"/>
<path d="M30.2168 9.2598C30.2244 10.4195 29.2024 11.4604 28.0479 11.4656C26.9596 11.4708 25.902 10.4092 25.8994 9.3063C25.8969 8.16724 26.9214 7.0876 28.0199 7.07727C29.1515 7.06435 30.2092 8.113 30.2168 9.2598Z" fill="white"/>
</svg>
