<svg width="46" height="32" viewBox="0 0 46 32" fill="none" xmlns="http://www.w3.org/2000/svg">
<path d="M23.1225 0.897738C28.2707 0.897738 33.4215 0.825417 38.5698 0.923567C41.855 0.985556 43.8199 2.54562 44.4393 5.78972C45.7798 12.7945 45.7875 19.8432 44.3704 26.8428C43.7766 29.7692 42.171 31.2441 39.2375 31.2776C28.6327 31.399 18.0227 31.4249 7.41783 31.3112C4.09951 31.275 2.48623 29.777 1.86436 26.4528C0.569659 19.5307 0.467707 12.5646 1.96885 5.65541C2.66463 2.45005 4.4971 0.972641 7.67269 0.920984C12.8235 0.835749 17.9743 0.897738 23.1225 0.897738ZM31.3954 15.7312C26.6065 13.2078 22.2815 10.9322 17.9233 8.63606C17.9233 13.4454 17.9233 18.0145 17.9233 22.8187C22.4395 20.4424 26.7008 18.2031 31.3954 15.7312Z" fill="white"/>
</svg>
