<svg width="40" height="41" viewBox="0 0 40 41" fill="none" xmlns="http://www.w3.org/2000/svg">
<path d="M19.7621 40.3336C9.90654 40.4034 0.00509954 32.6496 2.27437e-06 20.2491C-0.00509499 8.90509 8.55831 0.185266 19.8029 0.190432C32.044 0.198181 39.723 10.2663 39.6262 20.4764C39.5217 31.4485 30.6754 40.3543 19.7621 40.3336ZM21.8545 15.6722C21.8545 15.0704 21.852 14.6572 21.8545 14.2465C21.8647 12.7329 22.061 12.5315 23.557 12.5134C24.2426 12.5056 24.9282 12.5108 25.6647 12.5108C25.6647 10.9895 25.6647 9.60505 25.6647 8.15605C24.0285 8.15605 22.4662 8.03466 20.9294 8.18446C18.4215 8.42725 16.7878 10.2921 16.663 12.8492C16.6196 13.7506 16.6553 14.6546 16.6553 15.6929C15.7327 15.6929 14.9783 15.6929 14.2112 15.6929C14.2112 17.4674 14.2112 19.1023 14.2112 20.8664C15.0548 20.8664 15.8117 20.8664 16.6961 20.8664C16.6961 25.1256 16.6961 29.2556 16.6961 33.3237C18.4113 33.3237 19.9838 33.3237 21.6557 33.3237C21.6557 29.1239 21.6557 25.0275 21.6557 20.8019C22.925 20.8019 24.0922 20.8019 25.3232 20.8019C25.4863 19.0481 25.6367 17.4183 25.7973 15.6748C24.4287 15.6722 23.213 15.6722 21.8545 15.6722Z" fill="white"/>
</svg>
