<svg width="37" height="34" viewBox="0 0 37 34" fill="none" xmlns="http://www.w3.org/2000/svg">
<g clip-path="url(#clip0_101_1857)">
<path d="M3.33546 31.382V18.6562H0V33.9966H0.047118V33.9991H6.21709V31.382H3.33546Z" fill="white"/>
<path d="M6.97636 21.1953V33.921H10.3118V18.5807H10.2647V18.5781H4.09473V21.1953H6.97636Z" fill="white"/>
<path d="M16.5288 31.382V18.6562H13.1934V33.9966H13.2405V33.9991H19.4105V31.382H16.5288Z" fill="white"/>
<path d="M20.1663 21.1953V33.921H23.5042V18.5807H23.4571V18.5781H17.2871V21.1953H20.1663Z" fill="white"/>
<path d="M30.0239 31.382V18.6562H26.6885V33.9966H26.7356V33.9991H32.9056V31.382H30.0239Z" fill="white"/>
<path d="M33.6648 21.1953V33.921H37.0003V18.5807H36.9532V18.5781H30.7832V21.1953H33.6648Z" fill="white"/>
<path d="M3.33546 12.8058V0.0800781H0V15.4179H0.047118V15.4204H6.21709V12.8058H3.33546Z" fill="white"/>
<path d="M6.97636 2.6146V15.3429H10.3118V0H10.2647H4.09473V2.6146H6.97636Z" fill="white"/>
<path d="M16.5288 12.8058V0.0800781H13.1934V15.4179H13.2405V15.4204H19.4105V12.8058H16.5288Z" fill="white"/>
<path d="M20.1663 2.6146V15.3429H23.5042V0H23.4571H17.2871V2.6146H20.1663Z" fill="white"/>
<path d="M30.0239 12.8058V0.0800781H26.6885V15.4179H26.7356V15.4204H32.9056V12.8058H30.0239Z" fill="white"/>
<path d="M33.6648 2.6146V15.3429H37.0003V0H36.9532H30.7832V2.6146H33.6648Z" fill="white"/>
</g>
<defs>
<clipPath id="clip0_101_1857">
<rect width="37" height="34" fill="white"/>
</clipPath>
</defs>
</svg>
