<svg width="70" height="70" viewBox="0 0 70 70" fill="none" xmlns="http://www.w3.org/2000/svg">
<path d="M35 0C15.7008 0 0 15.7008 0 35C0 54.2992 15.7008 70 35 70C54.2992 70 70 54.2992 70 35C70 15.7008 54.2992 0 35 0ZM49.5833 53.7086L39.7122 43.8375C36.413 46.1077 32.3845 47.0631 28.4172 46.5161C24.4499 45.9691 20.8303 43.9592 18.2685 40.8808C15.7068 37.8025 14.388 33.8779 14.5708 29.8773C14.7537 25.8766 16.425 22.0887 19.2568 19.2568C22.0887 16.425 25.8766 14.7537 29.8773 14.5708C33.8779 14.388 37.8025 15.7068 40.8808 18.2685C43.9592 20.8303 45.9691 24.4499 46.5161 28.4172C47.0631 32.3845 46.1077 36.413 43.8375 39.7122L53.7086 49.5833L49.5833 53.7086Z" fill="#CD0033"/>
<path d="M31 41C36.5228 41 41 36.5228 41 31C41 25.4772 36.5228 21 31 21C25.4772 21 21 25.4772 21 31C21 36.5228 25.4772 41 31 41Z" fill="#CD0033"/>
</svg>
