<svg width="29" height="29" viewBox="0 0 29 29" fill="none" xmlns="http://www.w3.org/2000/svg">
<path d="M14.1583 0C6.35131 0 0 6.35131 0 14.1583C0 21.9652 6.35131 28.3165 14.1583 28.3165C21.9652 28.3165 28.3165 21.9652 28.3165 14.1583C28.3165 6.35131 21.9652 0 14.1583 0ZM20.0576 21.7263L16.0645 17.7332C14.7299 18.6516 13.1003 19.0381 11.4954 18.8168C9.89054 18.5955 8.4263 17.7825 7.39003 16.5372C6.35375 15.2919 5.82025 13.7044 5.89422 12.086C5.96818 10.4677 6.64427 8.93536 7.78982 7.78982C8.93536 6.64427 10.4677 5.96818 12.086 5.89422C13.7044 5.82025 15.2919 6.35375 16.5372 7.39003C17.7825 8.4263 18.5955 9.89054 18.8168 11.4954C19.0381 13.1003 18.6516 14.7299 17.7332 16.0645L21.7263 20.0576L20.0576 21.7263Z" fill="white"/>
<path d="M12.432 16.5768C14.7206 16.5768 16.5759 14.7216 16.5759 12.4329C16.5759 10.1443 14.7206 8.28906 12.432 8.28906C10.1434 8.28906 8.28809 10.1443 8.28809 12.4329C8.28809 14.7216 10.1434 16.5768 12.432 16.5768Z" fill="white"/>
</svg>
